<svg width="119" height="22" viewBox="0 0 119 22" fill="none" xmlns="http://www.w3.org/2000/svg">
<path fill-rule="evenodd" clip-rule="evenodd" d="M38.9657 6.53301C38.9657 5.89996 38.4882 5.38678 37.8991 5.38678H36.8324C36.2433 5.38678 35.7657 5.89996 35.7657 6.53301V16.467C35.7657 17.1 36.2433 17.6132 36.8324 17.6132H37.8991C38.4882 17.6132 38.9657 17.1 38.9657 16.467V6.53301ZM31.5316 7.83206H32.5983C33.1874 7.83206 33.665 8.35756 33.665 9.0058V16.4395C33.665 17.0877 33.1874 17.6132 32.5983 17.6132H31.5316C30.9425 17.6132 30.465 17.0877 30.465 16.4395V9.0058C30.465 8.35756 30.9425 7.83206 31.5316 7.83206ZM27.1999 10.4811H26.1332C25.5441 10.4811 25.0665 11.0133 25.0665 11.6698V16.4245C25.0665 17.081 25.5441 17.6132 26.1332 17.6132H27.1999C27.789 17.6132 28.2665 17.081 28.2665 16.4245V11.6698C28.2665 11.0133 27.789 10.4811 27.1999 10.4811ZM21.8991 12.9264H20.8324C20.2433 12.9264 19.7657 13.451 19.7657 14.0981V16.4415C19.7657 17.0886 20.2433 17.6132 20.8324 17.6132H21.8991C22.4882 17.6132 22.9657 17.0886 22.9657 16.4415V14.0981C22.9657 13.451 22.4882 12.9264 21.8991 12.9264Z" fill="white"/>
<path fill-rule="evenodd" clip-rule="evenodd" d="M54.5371 7.80213C57.0242 7.80223 59.4162 8.72432 61.2187 10.3778C61.3544 10.5054 61.5714 10.5038 61.7051 10.3742L63.0026 9.11072C63.0702 9.04496 63.108 8.95588 63.1074 8.8632C63.1069 8.77052 63.068 8.68187 62.9996 8.61688C58.2685 4.24217 50.8048 4.24217 46.0738 8.61688C46.0053 8.68183 45.9664 8.77044 45.9658 8.86313C45.9651 8.95581 46.0028 9.04491 46.0704 9.11072L47.3683 10.3742C47.5019 10.504 47.719 10.5056 47.8547 10.3778C49.6574 8.72421 52.0497 7.80212 54.5371 7.80213ZM54.5337 12.0224C55.891 12.0223 57.1999 12.5341 58.206 13.4582C58.3421 13.5893 58.5565 13.5865 58.6891 13.4518L59.9764 12.1325C60.0442 12.0633 60.0818 11.9694 60.0808 11.8718C60.0799 11.7743 60.0404 11.6812 59.9712 11.6134C56.9074 8.72257 52.1626 8.72257 49.0988 11.6134C49.0296 11.6812 48.9901 11.7743 48.9892 11.8719C48.9883 11.9695 49.026 12.0634 49.094 12.1325L50.3809 13.4518C50.5135 13.5865 50.7279 13.5893 50.864 13.4582C51.8694 12.5347 53.1773 12.023 54.5337 12.0224ZM57.0581 14.816C57.0601 14.9213 57.023 15.0229 56.9557 15.0967L54.779 17.5514C54.7152 17.6236 54.6282 17.6642 54.5375 17.6642C54.4467 17.6642 54.3597 17.6236 54.2959 17.5514L52.1189 15.0967C52.0516 15.0228 52.0146 14.9212 52.0166 14.8159C52.0186 14.7105 52.0594 14.6108 52.1294 14.5401C53.5195 13.2262 55.5554 13.2262 56.9455 14.5401C57.0155 14.6108 57.0562 14.7106 57.0581 14.816Z" fill="white"/>
<rect opacity="0.35" x="70.6074" y="5.5" width="24" height="12" rx="3.8" stroke="white"/>
<path opacity="0.4" d="M96.1074 9.5V13.5755C96.9122 13.2303 97.4355 12.4273 97.4355 11.5377C97.4355 10.6481 96.9122 9.84517 96.1074 9.5" fill="white"/>
<rect x="72.1074" y="7" width="21" height="9" rx="2.5" fill="white"/>
</svg>
