<svg width="119" height="22" viewBox="0 0 119 22" fill="none" xmlns="http://www.w3.org/2000/svg">
<path d="M47.1694 17.75C46.6339 17.75 46.4299 17.41 46.6764 16.934L51.5044 7.737H46.0389C45.5884 7.737 45.3504 7.499 45.3504 7.0485V6.5385C45.3504 6.088 45.5884 5.85 46.0389 5.85H53.3064C53.7484 5.85 53.9949 6.088 53.9949 6.5215V6.8445C53.9949 7.159 53.9439 7.3885 53.7909 7.686L48.8694 17.257C48.6994 17.5885 48.4359 17.75 48.0534 17.75H47.1694ZM55.5115 11.834C54.7465 11.834 54.177 11.29 54.177 10.525C54.177 9.76 54.7465 9.216 55.5115 9.216C56.268 9.216 56.8375 9.76 56.8375 10.525C56.8375 11.29 56.268 11.834 55.5115 11.834ZM55.5115 17.852C54.7465 17.852 54.177 17.308 54.177 16.543C54.177 15.7865 54.7465 15.2425 55.5115 15.2425C56.268 15.2425 56.8375 15.7865 56.8375 16.543C56.8375 17.308 56.268 17.852 55.5115 17.852ZM64.2347 17.75C63.7927 17.75 63.5462 17.512 63.5462 17.0615V15.115H58.3187C57.8682 15.115 57.6302 14.8685 57.6302 14.4265V13.7125C57.6302 13.3725 57.6982 13.143 57.9022 12.854L62.7132 6.2835C62.9257 5.986 63.1807 5.85 63.5547 5.85H65.0422C65.4842 5.85 65.7222 6.088 65.7222 6.5385V13.245H66.7592C67.2012 13.245 67.4477 13.4915 67.4477 13.9335V14.4265C67.4477 14.8685 67.2012 15.115 66.7592 15.115H65.7222V17.0615C65.7222 17.512 65.4842 17.75 65.0422 17.75H64.2347ZM59.7977 13.245H63.5462V8.1025L59.7977 13.245ZM70.4952 17.75C70.0447 17.75 69.8067 17.512 69.8067 17.0615V9.845C69.6282 9.9215 69.3987 9.9555 69.1182 9.9555H67.8347C67.3842 9.9555 67.1462 9.7175 67.1462 9.2755V8.7995C67.1462 8.349 67.3842 8.111 67.8347 8.111H68.9567C69.6027 8.111 69.8492 7.703 69.8492 7.108V6.5385C69.8492 6.088 70.0872 5.85 70.5377 5.85H71.3197C71.7702 5.85 72.0082 6.088 72.0082 6.5385V17.0615C72.0082 17.512 71.7702 17.75 71.3197 17.75H70.4952Z" fill="white"/>
</svg>
